# xmcd
#
# Track frame offsets: 
#        150
#        12922
#        28749
#        49978
#        69866
#        84652
#        100730
#        123161
#        140462
#        165589
#        182619
#        197769
#        212419
#        227227
#
# Disc length: 3364 seconds
#
# Revision: 1
# Processed by: cddbd v1.5.2PL0 Copyright (c) Steve Scherf et al.
# Submitted via: ExactAudioCopy v1.0b3
#
DISCID=b50d220e
DTITLE=Wanda Johnson - Hold What You Got
DYEAR=2008
DGENRE=Blues
TTITLE0=Hold What You Got
TTITLE1=Wheel Your Love To Me
TTITLE2=Your Side Of Town
TTITLE3=Allergic To Mink
TTITLE4=Believe Me, Baby
TTITLE5=Give You Face A Rest
TTITLE6=Move On
TTITLE7=Walkin' Don't Cost Nothin'
TTITLE8=Riding Out This Love
TTITLE9=Good Home Lovin'
TTITLE10=The Pane
TTITLE11=Girlfriend
TTITLE12=Dropping Names
TTITLE13=It's About Time
EXTD=
EXTT0=
EXTT1=
EXTT2=
EXTT3=
EXTT4=
EXTT5=
EXTT6=
EXTT7=
EXTT8=
EXTT9=
EXTT10=
EXTT11=
EXTT12=
EXTT13=
PLAYORDER=
